# Blender 5.1.2
# www.blender.org
o CameraGizmo
v 0.310000 -0.220000 -1.115000
v -0.310000 -0.220000 -1.115000
v -0.310000 0.220000 -1.115000
v 0.310000 0.220000 -1.115000
v -0.310000 -0.220000 -0.335000
v 0.310000 -0.220000 -0.335000
v 0.310000 0.220000 -0.335000
v -0.310000 0.220000 -0.335000
v 0.310000 -0.220000 -0.335000
v 0.310000 -0.220000 -1.115000
v 0.310000 0.220000 -1.115000
v 0.310000 0.220000 -0.335000
v -0.310000 -0.220000 -1.115000
v -0.310000 -0.220000 -0.335000
v -0.310000 0.220000 -0.335000
v -0.310000 0.220000 -1.115000
v 0.310000 0.220000 -1.115000
v -0.310000 0.220000 -1.115000
v -0.310000 0.220000 -0.335000
v 0.310000 0.220000 -0.335000
v 0.310000 -0.220000 -0.335000
v -0.310000 -0.220000 -0.335000
v -0.310000 -0.220000 -1.115000
v 0.310000 -0.220000 -1.115000
v -0.170000 -0.000000 -0.045000
v -0.157100 0.065100 -0.045000
v -0.157100 0.065100 -0.365000
v -0.170000 -0.000000 -0.365000
v -0.157100 0.065100 -0.045000
v -0.120200 0.120200 -0.045000
v -0.120200 0.120200 -0.365000
v -0.157100 0.065100 -0.365000
v -0.120200 0.120200 -0.045000
v -0.065100 0.157100 -0.045000
v -0.065100 0.157100 -0.365000
v -0.120200 0.120200 -0.365000
v -0.065100 0.157100 -0.045000
v 0.000000 0.170000 -0.045000
v 0.000000 0.170000 -0.365000
v -0.065100 0.157100 -0.365000
v 0.000000 0.170000 -0.045000
v 0.065100 0.157100 -0.045000
v 0.065100 0.157100 -0.365000
v 0.000000 0.170000 -0.365000
v 0.065100 0.157100 -0.045000
v 0.120200 0.120200 -0.045000
v 0.120200 0.120200 -0.365000
v 0.065100 0.157100 -0.365000
v 0.120200 0.120200 -0.045000
v 0.157100 0.065100 -0.045000
v 0.157100 0.065100 -0.365000
v 0.120200 0.120200 -0.365000
v 0.157100 0.065100 -0.045000
v 0.170000 -0.000000 -0.045000
v 0.170000 -0.000000 -0.365000
v 0.157100 0.065100 -0.365000
v 0.170000 -0.000000 -0.045000
v 0.157100 -0.065100 -0.045000
v 0.157100 -0.065100 -0.365000
v 0.170000 -0.000000 -0.365000
v 0.157100 -0.065100 -0.045000
v 0.120200 -0.120200 -0.045000
v 0.120200 -0.120200 -0.365000
v 0.157100 -0.065100 -0.365000
v 0.120200 -0.120200 -0.045000
v 0.065100 -0.157100 -0.045000
v 0.065100 -0.157100 -0.365000
v 0.120200 -0.120200 -0.365000
v 0.065100 -0.157100 -0.045000
v 0.000000 -0.170000 -0.045000
v 0.000000 -0.170000 -0.365000
v 0.065100 -0.157100 -0.365000
v 0.000000 -0.170000 -0.045000
v -0.065100 -0.157100 -0.045000
v -0.065100 -0.157100 -0.365000
v 0.000000 -0.170000 -0.365000
v -0.065100 -0.157100 -0.045000
v -0.120200 -0.120200 -0.045000
v -0.120200 -0.120200 -0.365000
v -0.065100 -0.157100 -0.365000
v -0.120200 -0.120200 -0.045000
v -0.157100 -0.065100 -0.045000
v -0.157100 -0.065100 -0.365000
v -0.120200 -0.120200 -0.365000
v -0.157100 -0.065100 -0.045000
v -0.170000 -0.000000 -0.045000
v -0.170000 -0.000000 -0.365000
v -0.157100 -0.065100 -0.365000
v 0.000000 -0.000000 -0.045000
v -0.170000 -0.000000 -0.045000
v -0.157100 0.065100 -0.045000
v -0.120200 0.120200 -0.045000
v -0.065100 0.157100 -0.045000
v 0.000000 0.170000 -0.045000
v 0.065100 0.157100 -0.045000
v 0.120200 0.120200 -0.045000
v 0.157100 0.065100 -0.045000
v 0.170000 -0.000000 -0.045000
v 0.157100 -0.065100 -0.045000
v 0.120200 -0.120200 -0.045000
v 0.065100 -0.157100 -0.045000
v 0.000000 -0.170000 -0.045000
v -0.065100 -0.157100 -0.045000
v -0.120200 -0.120200 -0.045000
v -0.157100 -0.065100 -0.045000
v 0.000000 -0.000000 -0.365000
v -0.170000 -0.000000 -0.365000
v -0.157100 0.065100 -0.365000
v -0.120200 0.120200 -0.365000
v -0.065100 0.157100 -0.365000
v 0.000000 0.170000 -0.365000
v 0.065100 0.157100 -0.365000
v 0.120200 0.120200 -0.365000
v 0.157100 0.065100 -0.365000
v 0.170000 -0.000000 -0.365000
v 0.157100 -0.065100 -0.365000
v 0.120200 -0.120200 -0.365000
v 0.065100 -0.157100 -0.365000
v 0.000000 -0.170000 -0.365000
v -0.065100 -0.157100 -0.365000
v -0.120200 -0.120200 -0.365000
v -0.157100 -0.065100 -0.365000
v -0.210000 -0.000000 0.005000
v -0.194000 0.080400 0.005000
v -0.194000 0.080400 -0.055000
v -0.210000 -0.000000 -0.055000
v -0.194000 0.080400 0.005000
v -0.148500 0.148500 0.005000
v -0.148500 0.148500 -0.055000
v -0.194000 0.080400 -0.055000
v -0.148500 0.148500 0.005000
v -0.080400 0.194000 0.005000
v -0.080400 0.194000 -0.055000
v -0.148500 0.148500 -0.055000
v -0.080400 0.194000 0.005000
v 0.000000 0.210000 0.005000
v 0.000000 0.210000 -0.055000
v -0.080400 0.194000 -0.055000
v 0.000000 0.210000 0.005000
v 0.080400 0.194000 0.005000
v 0.080400 0.194000 -0.055000
v 0.000000 0.210000 -0.055000
v 0.080400 0.194000 0.005000
v 0.148500 0.148500 0.005000
v 0.148500 0.148500 -0.055000
v 0.080400 0.194000 -0.055000
v 0.148500 0.148500 0.005000
v 0.194000 0.080400 0.005000
v 0.194000 0.080400 -0.055000
v 0.148500 0.148500 -0.055000
v 0.194000 0.080400 0.005000
v 0.210000 -0.000000 0.005000
v 0.210000 -0.000000 -0.055000
v 0.194000 0.080400 -0.055000
v 0.210000 -0.000000 0.005000
v 0.194000 -0.080400 0.005000
v 0.194000 -0.080400 -0.055000
v 0.210000 -0.000000 -0.055000
v 0.194000 -0.080400 0.005000
v 0.148500 -0.148500 0.005000
v 0.148500 -0.148500 -0.055000
v 0.194000 -0.080400 -0.055000
v 0.148500 -0.148500 0.005000
v 0.080400 -0.194000 0.005000
v 0.080400 -0.194000 -0.055000
v 0.148500 -0.148500 -0.055000
v 0.080400 -0.194000 0.005000
v 0.000000 -0.210000 0.005000
v 0.000000 -0.210000 -0.055000
v 0.080400 -0.194000 -0.055000
v 0.000000 -0.210000 0.005000
v -0.080400 -0.194000 0.005000
v -0.080400 -0.194000 -0.055000
v 0.000000 -0.210000 -0.055000
v -0.080400 -0.194000 0.005000
v -0.148500 -0.148500 0.005000
v -0.148500 -0.148500 -0.055000
v -0.080400 -0.194000 -0.055000
v -0.148500 -0.148500 0.005000
v -0.194000 -0.080400 0.005000
v -0.194000 -0.080400 -0.055000
v -0.148500 -0.148500 -0.055000
v -0.194000 -0.080400 0.005000
v -0.210000 -0.000000 0.005000
v -0.210000 -0.000000 -0.055000
v -0.194000 -0.080400 -0.055000
v 0.000000 -0.000000 0.005000
v -0.210000 -0.000000 0.005000
v -0.194000 0.080400 0.005000
v -0.148500 0.148500 0.005000
v -0.080400 0.194000 0.005000
v 0.000000 0.210000 0.005000
v 0.080400 0.194000 0.005000
v 0.148500 0.148500 0.005000
v 0.194000 0.080400 0.005000
v 0.210000 -0.000000 0.005000
v 0.194000 -0.080400 0.005000
v 0.148500 -0.148500 0.005000
v 0.080400 -0.194000 0.005000
v 0.000000 -0.210000 0.005000
v -0.080400 -0.194000 0.005000
v -0.148500 -0.148500 0.005000
v -0.194000 -0.080400 0.005000
v 0.000000 -0.000000 -0.055000
v -0.210000 -0.000000 -0.055000
v -0.194000 0.080400 -0.055000
v -0.148500 0.148500 -0.055000
v -0.080400 0.194000 -0.055000
v 0.000000 0.210000 -0.055000
v 0.080400 0.194000 -0.055000
v 0.148500 0.148500 -0.055000
v 0.194000 0.080400 -0.055000
v 0.210000 -0.000000 -0.055000
v 0.194000 -0.080400 -0.055000
v 0.148500 -0.148500 -0.055000
v 0.080400 -0.194000 -0.055000
v 0.000000 -0.210000 -0.055000
v -0.080400 -0.194000 -0.055000
v -0.148500 -0.148500 -0.055000
v -0.194000 -0.080400 -0.055000
v -0.260000 0.340000 -0.595000
v -0.240200 0.439500 -0.595000
v -0.240200 0.439500 -0.695000
v -0.260000 0.340000 -0.695000
v -0.240200 0.439500 -0.595000
v -0.183800 0.523800 -0.595000
v -0.183800 0.523800 -0.695000
v -0.240200 0.439500 -0.695000
v -0.183800 0.523800 -0.595000
v -0.099500 0.580200 -0.595000
v -0.099500 0.580200 -0.695000
v -0.183800 0.523800 -0.695000
v -0.099500 0.580200 -0.595000
v 0.000000 0.600000 -0.595000
v -0.000000 0.600000 -0.695000
v -0.099500 0.580200 -0.695000
v 0.000000 0.600000 -0.595000
v 0.099500 0.580200 -0.595000
v 0.099500 0.580200 -0.695000
v -0.000000 0.600000 -0.695000
v 0.099500 0.580200 -0.595000
v 0.183800 0.523800 -0.595000
v 0.183800 0.523800 -0.695000
v 0.099500 0.580200 -0.695000
v 0.183800 0.523800 -0.595000
v 0.240200 0.439500 -0.595000
v 0.240200 0.439500 -0.695000
v 0.183800 0.523800 -0.695000
v 0.240200 0.439500 -0.595000
v 0.260000 0.340000 -0.595000
v 0.260000 0.340000 -0.695000
v 0.240200 0.439500 -0.695000
v 0.260000 0.340000 -0.595000
v 0.240200 0.240500 -0.595000
v 0.240200 0.240500 -0.695000
v 0.260000 0.340000 -0.695000
v 0.240200 0.240500 -0.595000
v 0.183800 0.156200 -0.595000
v 0.183800 0.156200 -0.695000
v 0.240200 0.240500 -0.695000
v 0.183800 0.156200 -0.595000
v 0.099500 0.099800 -0.595000
v 0.099500 0.099800 -0.695000
v 0.183800 0.156200 -0.695000
v 0.099500 0.099800 -0.595000
v 0.000000 0.080000 -0.595000
v -0.000000 0.080000 -0.695000
v 0.099500 0.099800 -0.695000
v 0.000000 0.080000 -0.595000
v -0.099500 0.099800 -0.595000
v -0.099500 0.099800 -0.695000
v -0.000000 0.080000 -0.695000
v -0.099500 0.099800 -0.595000
v -0.183800 0.156200 -0.595000
v -0.183800 0.156200 -0.695000
v -0.099500 0.099800 -0.695000
v -0.183800 0.156200 -0.595000
v -0.240200 0.240500 -0.595000
v -0.240200 0.240500 -0.695000
v -0.183800 0.156200 -0.695000
v -0.240200 0.240500 -0.595000
v -0.260000 0.340000 -0.595000
v -0.260000 0.340000 -0.695000
v -0.240200 0.240500 -0.695000
v 0.000000 0.340000 -0.595000
v -0.260000 0.340000 -0.595000
v -0.240200 0.439500 -0.595000
v -0.183800 0.523800 -0.595000
v -0.099500 0.580200 -0.595000
v 0.000000 0.600000 -0.595000
v 0.099500 0.580200 -0.595000
v 0.183800 0.523800 -0.595000
v 0.240200 0.439500 -0.595000
v 0.260000 0.340000 -0.595000
v 0.240200 0.240500 -0.595000
v 0.183800 0.156200 -0.595000
v 0.099500 0.099800 -0.595000
v 0.000000 0.080000 -0.595000
v -0.099500 0.099800 -0.595000
v -0.183800 0.156200 -0.595000
v -0.240200 0.240500 -0.595000
v -0.000000 0.340000 -0.695000
v -0.260000 0.340000 -0.695000
v -0.240200 0.439500 -0.695000
v -0.183800 0.523800 -0.695000
v -0.099500 0.580200 -0.695000
v -0.000000 0.600000 -0.695000
v 0.099500 0.580200 -0.695000
v 0.183800 0.523800 -0.695000
v 0.240200 0.439500 -0.695000
v 0.260000 0.340000 -0.695000
v 0.240200 0.240500 -0.695000
v 0.183800 0.156200 -0.695000
v 0.099500 0.099800 -0.695000
v -0.000000 0.080000 -0.695000
v -0.099500 0.099800 -0.695000
v -0.183800 0.156200 -0.695000
v -0.240200 0.240500 -0.695000
v -0.260000 0.340000 -0.995000
v -0.240200 0.439500 -0.995000
v -0.240200 0.439500 -1.095000
v -0.260000 0.340000 -1.095000
v -0.240200 0.439500 -0.995000
v -0.183800 0.523800 -0.995000
v -0.183800 0.523800 -1.095000
v -0.240200 0.439500 -1.095000
v -0.183800 0.523800 -0.995000
v -0.099500 0.580200 -0.995000
v -0.099500 0.580200 -1.095000
v -0.183800 0.523800 -1.095000
v -0.099500 0.580200 -0.995000
v -0.000000 0.600000 -0.995000
v -0.000000 0.600000 -1.095000
v -0.099500 0.580200 -1.095000
v -0.000000 0.600000 -0.995000
v 0.099500 0.580200 -0.995000
v 0.099500 0.580200 -1.095000
v -0.000000 0.600000 -1.095000
v 0.099500 0.580200 -0.995000
v 0.183800 0.523800 -0.995000
v 0.183800 0.523800 -1.095000
v 0.099500 0.580200 -1.095000
v 0.183800 0.523800 -0.995000
v 0.240200 0.439500 -0.995000
v 0.240200 0.439500 -1.095000
v 0.183800 0.523800 -1.095000
v 0.240200 0.439500 -0.995000
v 0.260000 0.340000 -0.995000
v 0.260000 0.340000 -1.095000
v 0.240200 0.439500 -1.095000
v 0.260000 0.340000 -0.995000
v 0.240200 0.240500 -0.995000
v 0.240200 0.240500 -1.095000
v 0.260000 0.340000 -1.095000
v 0.240200 0.240500 -0.995000
v 0.183800 0.156200 -0.995000
v 0.183800 0.156200 -1.095000
v 0.240200 0.240500 -1.095000
v 0.183800 0.156200 -0.995000
v 0.099500 0.099800 -0.995000
v 0.099500 0.099800 -1.095000
v 0.183800 0.156200 -1.095000
v 0.099500 0.099800 -0.995000
v -0.000000 0.080000 -0.995000
v -0.000000 0.080000 -1.095000
v 0.099500 0.099800 -1.095000
v -0.000000 0.080000 -0.995000
v -0.099500 0.099800 -0.995000
v -0.099500 0.099800 -1.095000
v -0.000000 0.080000 -1.095000
v -0.099500 0.099800 -0.995000
v -0.183800 0.156200 -0.995000
v -0.183800 0.156200 -1.095000
v -0.099500 0.099800 -1.095000
v -0.183800 0.156200 -0.995000
v -0.240200 0.240500 -0.995000
v -0.240200 0.240500 -1.095000
v -0.183800 0.156200 -1.095000
v -0.240200 0.240500 -0.995000
v -0.260000 0.340000 -0.995000
v -0.260000 0.340000 -1.095000
v -0.240200 0.240500 -1.095000
v -0.000000 0.340000 -0.995000
v -0.260000 0.340000 -0.995000
v -0.240200 0.439500 -0.995000
v -0.183800 0.523800 -0.995000
v -0.099500 0.580200 -0.995000
v -0.000000 0.600000 -0.995000
v 0.099500 0.580200 -0.995000
v 0.183800 0.523800 -0.995000
v 0.240200 0.439500 -0.995000
v 0.260000 0.340000 -0.995000
v 0.240200 0.240500 -0.995000
v 0.183800 0.156200 -0.995000
v 0.099500 0.099800 -0.995000
v -0.000000 0.080000 -0.995000
v -0.099500 0.099800 -0.995000
v -0.183800 0.156200 -0.995000
v -0.240200 0.240500 -0.995000
v -0.000000 0.340000 -1.095000
v -0.260000 0.340000 -1.095000
v -0.240200 0.439500 -1.095000
v -0.183800 0.523800 -1.095000
v -0.099500 0.580200 -1.095000
v -0.000000 0.600000 -1.095000
v 0.099500 0.580200 -1.095000
v 0.183800 0.523800 -1.095000
v 0.240200 0.439500 -1.095000
v 0.260000 0.340000 -1.095000
v 0.240200 0.240500 -1.095000
v 0.183800 0.156200 -1.095000
v 0.099500 0.099800 -1.095000
v -0.000000 0.080000 -1.095000
v -0.099500 0.099800 -1.095000
v -0.183800 0.156200 -1.095000
v -0.240200 0.240500 -1.095000
v -0.250000 0.100000 -1.055000
v -0.350000 0.100000 -1.055000
v -0.350000 0.220000 -1.055000
v -0.250000 0.220000 -1.055000
v -0.350000 0.100000 -0.795000
v -0.250000 0.100000 -0.795000
v -0.250000 0.220000 -0.795000
v -0.350000 0.220000 -0.795000
v -0.250000 0.100000 -0.795000
v -0.250000 0.100000 -1.055000
v -0.250000 0.220000 -1.055000
v -0.250000 0.220000 -0.795000
v -0.350000 0.100000 -1.055000
v -0.350000 0.100000 -0.795000
v -0.350000 0.220000 -0.795000
v -0.350000 0.220000 -1.055000
v -0.250000 0.220000 -1.055000
v -0.350000 0.220000 -1.055000
v -0.350000 0.220000 -0.795000
v -0.250000 0.220000 -0.795000
v -0.250000 0.100000 -0.795000
v -0.350000 0.100000 -0.795000
v -0.350000 0.100000 -1.055000
v -0.250000 0.100000 -1.055000
vn -0.0000 -0.0000 -1.0000
vn -0.0000 -0.0000 1.0000
vn 1.0000 -0.0000 -0.0000
vn -1.0000 -0.0000 -0.0000
vn -0.0000 1.0000 -0.0000
vn -0.0000 -1.0000 -0.0000
vn -0.9809 0.1944 -0.0000
vn -0.8309 0.5564 -0.0000
vn -0.5564 0.8309 -0.0000
vn -0.1944 0.9809 -0.0000
vn 0.1944 0.9809 -0.0000
vn 0.5564 0.8309 -0.0000
vn 0.8309 0.5564 -0.0000
vn 0.9809 0.1944 -0.0000
vn 0.9809 -0.1944 -0.0000
vn 0.8309 -0.5564 -0.0000
vn 0.5564 -0.8309 -0.0000
vn 0.1944 -0.9809 -0.0000
vn -0.1944 -0.9809 -0.0000
vn -0.5564 -0.8309 -0.0000
vn -0.8309 -0.5564 -0.0000
vn -0.9809 -0.1944 -0.0000
vn -0.9808 0.1952 -0.0000
vn -0.8315 0.5555 -0.0000
vn -0.5555 0.8315 -0.0000
vn -0.1952 0.9808 -0.0000
vn 0.1952 0.9808 -0.0000
vn 0.5555 0.8315 -0.0000
vn 0.8315 0.5555 -0.0000
vn 0.9808 0.1952 -0.0000
vn 0.9808 -0.1952 -0.0000
vn 0.8315 -0.5555 -0.0000
vn 0.5555 -0.8315 -0.0000
vn 0.1952 -0.9808 -0.0000
vn -0.1952 -0.9808 -0.0000
vn -0.5555 -0.8315 -0.0000
vn -0.8315 -0.5555 -0.0000
vn -0.9808 -0.1952 -0.0000
vn -0.8311 0.5561 -0.0000
vn -0.5561 0.8311 -0.0000
vn 0.5561 0.8311 -0.0000
vn 0.8311 0.5561 -0.0000
vn 0.8311 -0.5561 -0.0000
vn 0.5561 -0.8311 -0.0000
vn -0.5561 -0.8311 -0.0000
vn -0.8311 -0.5561 -0.0000
s 0
f 1//1 2//1 3//1
f 1//1 3//1 4//1
f 5//2 6//2 7//2
f 5//2 7//2 8//2
f 9//3 10//3 11//3
f 9//3 11//3 12//3
f 13//4 14//4 15//4
f 13//4 15//4 16//4
f 17//5 18//5 19//5
f 17//5 19//5 20//5
f 21//6 22//6 23//6
f 21//6 23//6 24//6
f 25//7 26//7 27//7
f 25//7 27//7 28//7
f 29//8 30//8 31//8
f 29//8 31//8 32//8
f 33//9 34//9 35//9
f 33//9 35//9 36//9
f 37//10 38//10 39//10
f 37//10 39//10 40//10
f 41//11 42//11 43//11
f 41//11 43//11 44//11
f 45//12 46//12 47//12
f 45//12 47//12 48//12
f 49//13 50//13 51//13
f 49//13 51//13 52//13
f 53//14 54//14 55//14
f 53//14 55//14 56//14
f 57//15 58//15 59//15
f 57//15 59//15 60//15
f 61//16 62//16 63//16
f 61//16 63//16 64//16
f 65//17 66//17 67//17
f 65//17 67//17 68//17
f 69//18 70//18 71//18
f 69//18 71//18 72//18
f 73//19 74//19 75//19
f 73//19 75//19 76//19
f 77//20 78//20 79//20
f 77//20 79//20 80//20
f 81//21 82//21 83//21
f 81//21 83//21 84//21
f 85//22 86//22 87//22
f 85//22 87//22 88//22
f 89//2 91//2 90//2
f 89//2 92//2 91//2
f 89//2 93//2 92//2
f 89//2 94//2 93//2
f 89//2 95//2 94//2
f 89//2 96//2 95//2
f 89//2 97//2 96//2
f 89//2 98//2 97//2
f 89//2 99//2 98//2
f 89//2 100//2 99//2
f 89//2 101//2 100//2
f 89//2 102//2 101//2
f 89//2 103//2 102//2
f 89//2 104//2 103//2
f 89//2 105//2 104//2
f 89//2 90//2 105//2
f 106//1 107//1 108//1
f 106//1 108//1 109//1
f 106//1 109//1 110//1
f 106//1 110//1 111//1
f 106//1 111//1 112//1
f 106//1 112//1 113//1
f 106//1 113//1 114//1
f 106//1 114//1 115//1
f 106//1 115//1 116//1
f 106//1 116//1 117//1
f 106//1 117//1 118//1
f 106//1 118//1 119//1
f 106//1 119//1 120//1
f 106//1 120//1 121//1
f 106//1 121//1 122//1
f 106//1 122//1 107//1
f 123//23 124//23 125//23
f 123//23 125//23 126//23
f 127//24 128//24 129//24
f 127//24 129//24 130//24
f 131//25 132//25 133//25
f 131//25 133//25 134//25
f 135//26 136//26 137//26
f 135//26 137//26 138//26
f 139//27 140//27 141//27
f 139//27 141//27 142//27
f 143//28 144//28 145//28
f 143//28 145//28 146//28
f 147//29 148//29 149//29
f 147//29 149//29 150//29
f 151//30 152//30 153//30
f 151//30 153//30 154//30
f 155//31 156//31 157//31
f 155//31 157//31 158//31
f 159//32 160//32 161//32
f 159//32 161//32 162//32
f 163//33 164//33 165//33
f 163//33 165//33 166//33
f 167//34 168//34 169//34
f 167//34 169//34 170//34
f 171//35 172//35 173//35
f 171//35 173//35 174//35
f 175//36 176//36 177//36
f 175//36 177//36 178//36
f 179//37 180//37 181//37
f 179//37 181//37 182//37
f 183//38 184//38 185//38
f 183//38 185//38 186//38
f 187//2 189//2 188//2
f 187//2 190//2 189//2
f 187//2 191//2 190//2
f 187//2 192//2 191//2
f 187//2 193//2 192//2
f 187//2 194//2 193//2
f 187//2 195//2 194//2
f 187//2 196//2 195//2
f 187//2 197//2 196//2
f 187//2 198//2 197//2
f 187//2 199//2 198//2
f 187//2 200//2 199//2
f 187//2 201//2 200//2
f 187//2 202//2 201//2
f 187//2 203//2 202//2
f 187//2 188//2 203//2
f 204//1 205//1 206//1
f 204//1 206//1 207//1
f 204//1 207//1 208//1
f 204//1 208//1 209//1
f 204//1 209//1 210//1
f 204//1 210//1 211//1
f 204//1 211//1 212//1
f 204//1 212//1 213//1
f 204//1 213//1 214//1
f 204//1 214//1 215//1
f 204//1 215//1 216//1
f 204//1 216//1 217//1
f 204//1 217//1 218//1
f 204//1 218//1 219//1
f 204//1 219//1 220//1
f 204//1 220//1 205//1
f 221//23 222//23 223//23
f 221//23 223//23 224//23
f 225//39 226//39 227//39
f 225//39 227//39 228//39
f 229//40 230//40 231//40
f 229//40 231//40 232//40
f 233//26 234//26 235//26
f 233//26 235//26 236//26
f 237//27 238//27 239//27
f 237//27 239//27 240//27
f 241//41 242//41 243//41
f 241//41 243//41 244//41
f 245//42 246//42 247//42
f 245//42 247//42 248//42
f 249//30 250//30 251//30
f 249//30 251//30 252//30
f 253//31 254//31 255//31
f 253//31 255//31 256//31
f 257//43 258//43 259//43
f 257//43 259//43 260//43
f 261//44 262//44 263//44
f 261//44 263//44 264//44
f 265//34 266//34 267//34
f 265//34 267//34 268//34
f 269//35 270//35 271//35
f 269//35 271//35 272//35
f 273//45 274//45 275//45
f 273//45 275//45 276//45
f 277//46 278//46 279//46
f 277//46 279//46 280//46
f 281//38 282//38 283//38
f 281//38 283//38 284//38
f 285//2 287//2 286//2
f 285//2 288//2 287//2
f 285//2 289//2 288//2
f 285//2 290//2 289//2
f 285//2 291//2 290//2
f 285//2 292//2 291//2
f 285//2 293//2 292//2
f 285//2 294//2 293//2
f 285//2 295//2 294//2
f 285//2 296//2 295//2
f 285//2 297//2 296//2
f 285//2 298//2 297//2
f 285//2 299//2 298//2
f 285//2 300//2 299//2
f 285//2 301//2 300//2
f 285//2 286//2 301//2
f 302//1 303//1 304//1
f 302//1 304//1 305//1
f 302//1 305//1 306//1
f 302//1 306//1 307//1
f 302//1 307//1 308//1
f 302//1 308//1 309//1
f 302//1 309//1 310//1
f 302//1 310//1 311//1
f 302//1 311//1 312//1
f 302//1 312//1 313//1
f 302//1 313//1 314//1
f 302//1 314//1 315//1
f 302//1 315//1 316//1
f 302//1 316//1 317//1
f 302//1 317//1 318//1
f 302//1 318//1 303//1
f 319//23 320//23 321//23
f 319//23 321//23 322//23
f 323//39 324//39 325//39
f 323//39 325//39 326//39
f 327//40 328//40 329//40
f 327//40 329//40 330//40
f 331//26 332//26 333//26
f 331//26 333//26 334//26
f 335//27 336//27 337//27
f 335//27 337//27 338//27
f 339//41 340//41 341//41
f 339//41 341//41 342//41
f 343//42 344//42 345//42
f 343//42 345//42 346//42
f 347//30 348//30 349//30
f 347//30 349//30 350//30
f 351//31 352//31 353//31
f 351//31 353//31 354//31
f 355//43 356//43 357//43
f 355//43 357//43 358//43
f 359//44 360//44 361//44
f 359//44 361//44 362//44
f 363//34 364//34 365//34
f 363//34 365//34 366//34
f 367//35 368//35 369//35
f 367//35 369//35 370//35
f 371//45 372//45 373//45
f 371//45 373//45 374//45
f 375//46 376//46 377//46
f 375//46 377//46 378//46
f 379//38 380//38 381//38
f 379//38 381//38 382//38
f 383//2 385//2 384//2
f 383//2 386//2 385//2
f 383//2 387//2 386//2
f 383//2 388//2 387//2
f 383//2 389//2 388//2
f 383//2 390//2 389//2
f 383//2 391//2 390//2
f 383//2 392//2 391//2
f 383//2 393//2 392//2
f 383//2 394//2 393//2
f 383//2 395//2 394//2
f 383//2 396//2 395//2
f 383//2 397//2 396//2
f 383//2 398//2 397//2
f 383//2 399//2 398//2
f 383//2 384//2 399//2
f 400//1 401//1 402//1
f 400//1 402//1 403//1
f 400//1 403//1 404//1
f 400//1 404//1 405//1
f 400//1 405//1 406//1
f 400//1 406//1 407//1
f 400//1 407//1 408//1
f 400//1 408//1 409//1
f 400//1 409//1 410//1
f 400//1 410//1 411//1
f 400//1 411//1 412//1
f 400//1 412//1 413//1
f 400//1 413//1 414//1
f 400//1 414//1 415//1
f 400//1 415//1 416//1
f 400//1 416//1 401//1
f 417//1 418//1 419//1
f 417//1 419//1 420//1
f 421//2 422//2 423//2
f 421//2 423//2 424//2
f 425//3 426//3 427//3
f 425//3 427//3 428//3
f 429//4 430//4 431//4
f 429//4 431//4 432//4
f 433//5 434//5 435//5
f 433//5 435//5 436//5
f 437//6 438//6 439//6
f 437//6 439//6 440//6
