<svg xmlns="http://www.w3.org/2000/svg" viewBox="12 16 635.5 114">
  <g transform="translate(0,137) scale(0.1,-0.1)" fill="#ffffff">
    <path fill-rule="evenodd" d="M0 685 m915 395 l-130 -130 -140 0 -139 0 -63 -62 c-47 -47 -63 -69 -63 -90 l0 -28 90 0 90 0 0 60 0 60 130 0 130 0 0 -162 0 -163 -122 -122 c-68 -68 -126 -123 -130 -123 -5 0 -8 43 -8 95 l0 95 -90 0 -90 0 0 -97 0 -98 -122 -122 c-68 -68 -126 -123 -130 -123 -5 0 -8 199 -8 442 l0 443 127 127 128 128 335 0 335 0 -130 -130z m842 12 l-117 -117 0 -233 0 -232 -70 0 c-38 0 -70 -3 -70 -7 0 -4 10 -17 22 -30 19 -20 31 -23 103 -23 l81 0 64 -65 64 -65 -274 0 -274 0 -48 47 -48 47 0 178 0 178 95 0 95 0 0 90 0 90 -57 0 c-57 0 -58 0 -120 -62 l-63 -62 0 -253 0 -253 -130 0 -130 0 0 321 0 320 123 125 122 124 375 0 375 0 -118 -118z m798 -12 l-130 -130 -77 0 -78 0 0 -252 0 -252 -62 -63 -62 -63 -68 0 -68 0 0 277 0 276 -25 -23 c-22 -20 -25 -32 -25 -87 0 -40 -4 -63 -11 -63 -7 0 -65 28 -130 62 l-119 62 0 70 0 71 122 122 123 122 370 1 370 0 -130 -130z m760 0 l-130 -130 -77 0 -78 0 0 -185 0 -185 97 0 98 0 -130 -130 -130 -130 -332 2 -332 3 125 128 124 127 110 0 110 0 0 117 0 117 -30 -29 -30 -29 -95 94 c-52 52 -95 99 -95 104 0 5 55 65 122 132 l122 124 341 0 340 0 -130 -130z m690 0 l-130 -130 -110 0 -111 0 -62 -63 -63 -64 3 -59 3 -59 188 -3 187 -2 0 -69 0 -68 -64 -61 -64 -62 -126 0 -126 0 0 -60 0 -60 -125 0 -125 0 0 322 0 323 122 122 123 123 305 0 305 0 -130 -130z m760 0 l-130 -130 -140 0 -139 0 -63 -62 c-47 -47 -63 -69 -63 -90 l0 -28 90 0 90 0 0 60 0 60 130 0 130 0 0 -158 0 -157 -130 -130 -130 -130 0 98 0 97 -90 0 -90 0 0 -95 0 -95 -130 0 -130 0 0 318 0 317 123 127 122 127 340 0 340 1 -130 -130z m875 123 c0 -4 -55 -63 -122 -130 l-123 -123 -142 0 -141 0 -61 -62 -61 -63 0 -122 0 -123 215 0 c118 0 215 -3 215 -7 0 -4 -55 -63 -122 -130 l-123 -123 -222 0 -223 0 0 322 0 323 122 122 123 123 332 0 c183 0 333 -3 333 -7z m705 -123 l-130 -130 -77 0 -78 0 0 -253 0 -252 -130 -130 -130 -130 0 350 0 349 -30 -29 c-27 -26 -30 -35 -30 -92 0 -35 -2 -63 -5 -63 -3 0 -61 28 -130 62 l-125 63 0 65 0 65 127 127 128 128 370 0 370 0 -130 -130z"/>
  </g>
</svg>
